<svg width="16" height="16" viewBox="0 0 16 16" fill="none" xmlns="http://www.w3.org/2000/svg">
<g clip-path="url(#clip0_2_1392)">
<path d="M0.75569 0.0562501C0.452565 0.1625 0.17444 0.4375 0.0556899 0.75C-0.00368505 0.90625 -0.00368505 0.990625 0.00256495 2.7125L0.0119399 4.51563L0.11819 4.7125C0.246315 4.94688 0.440065 5.13438 0.677565 5.24375L0.85569 5.32812H3.66819H6.48069L6.66819 5.2375C6.90569 5.11875 7.11507 4.90938 7.23382 4.67188L7.32444 4.48438V2.67188V0.859375L7.24007 0.68125C7.13069 0.44375 6.94319 0.25 6.70882 0.121875L6.51194 0.0156255L3.71507 0.0093751C1.09319 0.00312519 0.908815 0.00625038 0.75569 0.0562501Z" fill="#ff7901"/>
<path d="M9.45847 0.0437498C9.13972 0.159375 8.88972 0.384375 8.7491 0.684375L8.66785 0.859375V4.67188V8.48438L8.75847 8.67188C8.87722 8.90937 9.0866 9.11875 9.3241 9.2375L9.5116 9.32812H12.3241H15.1366L15.3147 9.24375C15.5522 9.13437 15.746 8.94688 15.8741 8.7125L15.9803 8.51562V4.67188V0.828125L15.896 0.65625C15.7866 0.434375 15.5616 0.209374 15.3397 0.0999994L15.1678 0.015625L12.371 0.00937462C10.1241 0.00312519 9.55222 0.00937462 9.45847 0.0437498Z" fill="#ff7901"/>
<path d="M0.817847 6.7C0.508472 6.8 0.261597 7.00937 0.0990967 7.31875L0.0115967 7.48438V11.3281V15.1719L0.0959717 15.3438C0.205347 15.5656 0.430347 15.7906 0.652222 15.9L0.824097 15.9844H3.66785H6.5116L6.70847 15.8781C6.94285 15.75 7.13035 15.5563 7.23972 15.3187L7.3241 15.1406V11.3281V7.51562L7.23347 7.32812C7.11472 7.09062 6.90535 6.88125 6.66785 6.7625L6.48035 6.67188L3.71472 6.66562C1.48972 6.6625 0.924097 6.66875 0.817847 6.7Z" fill="#ff7901"/>
<path d="M9.43962 10.7188C9.20837 10.8031 9.00212 10.9594 8.86149 11.1563C8.64587 11.4656 8.64899 11.4438 8.65837 13.3938L8.66774 15.1406L8.75212 15.3188C8.86149 15.5563 9.04899 15.75 9.28337 15.8781L9.48024 15.9844H12.324H15.1677L15.3396 15.9C15.5615 15.7906 15.7865 15.5656 15.8959 15.3438L15.9802 15.1719V13.3281V11.4844L15.874 11.2875C15.7459 11.0531 15.5521 10.8656 15.3146 10.7563L15.1365 10.6719L12.3709 10.6656C9.71149 10.6594 9.59899 10.6594 9.43962 10.7188Z" fill="#ff7901"/>
</g>
<defs>
<clipPath id="clip0_2_1392">
<rect width="16" height="16" fill="white"/>
</clipPath>
</defs>
</svg>
